<svg width="512" height="512" viewBox="0 0 512 512" fill="none" xmlns="http://www.w3.org/2000/svg">
<g clip-path="url(#clip0_1150_272)">
<path d="M505.92 146.368L469.227 85.4613L256.192 0L256 0.0853333L255.808 0L42.7734 85.4613L6.0801 146.368C-7.9359 169.728 3.28543 200.064 29.1201 208.661L177.835 275.307C196.8 281.621 217.621 273.92 227.904 256.789L255.765 204.565L284.053 256.789C294.336 273.941 315.157 281.643 334.123 275.307L482.837 208.661C508.672 200.043 519.893 169.728 505.877 146.368H505.92ZM256 164.331L133.269 118.848L256 69.0133L378.731 118.848L256 164.331ZM405.205 290.091L469.227 261.504L469.077 440.491L256 511.509L42.9228 440.491L42.7734 261.504L106.795 290.091L106.88 394.347L224.128 433.429L224.064 313.579C235.605 308.779 246.165 301.589 254.763 291.968L256 290.603L257.237 291.968C265.835 301.589 276.395 308.779 287.936 313.579L287.872 433.429L405.12 394.347L405.205 290.091Z" fill="black"/>
</g>
<defs>
<clipPath id="clip0_1150_272">
<rect width="512" height="512" fill="black"/>
</clipPath>
</defs>
</svg>
