<svg version="1.1" id="Layer_1" xmlns="http://www.w3.org/2000/svg" xmlns:xlink="http://www.w3.org/1999/xlink" x="0px" y="0px"
	 width="100%" viewBox="0 0 2048 2048" enable-background="new 0 0 2048 2048" xml:space="preserve">
<path fill="#000000" opacity="1.000000" stroke="none" 
	d="
M1991.000000,2049.000000 
	C1327.333374,2049.000000 664.166687,2049.000000 1.000000,2049.000000 
	C1.000000,1366.333374 1.000000,683.666687 1.000000,1.000000 
	C683.666687,1.000000 1366.333374,1.000000 2049.000000,1.000000 
	C2049.000000,683.666687 2049.000000,1366.333374 2049.000000,2049.000000 
	C2029.833374,2049.000000 2010.666626,2049.000000 1991.000000,2049.000000 
M337.208588,1485.023315 
	C329.580994,1484.695312 321.779419,1486.102539 313.326080,1483.725952 
	C314.851593,1484.636597 315.972443,1485.873657 317.116699,1485.895752 
	C324.134766,1486.031372 331.158173,1485.892090 339.084198,1485.989502 
	C366.517242,1485.989502 393.950317,1485.989502 421.383362,1485.989502 
	C421.383301,1485.715210 421.383240,1485.440918 421.383179,1485.166626 
	C393.649353,1485.166626 365.915497,1485.166626 337.208588,1485.023315 
M1539.086914,1492.984619 
	C1566.525635,1492.984619 1593.964355,1492.984619 1621.403076,1492.984619 
	C1621.403076,1492.712036 1621.402954,1492.439331 1621.402832,1492.166748 
	C1593.662476,1492.166748 1565.922119,1492.166748 1537.225098,1491.963257 
	C1517.073120,1491.963257 1496.921143,1491.963257 1476.769043,1491.963257 
	C1476.769287,1492.254883 1476.769409,1492.546509 1476.769531,1492.838135 
	C1497.240723,1492.838135 1517.711792,1492.838135 1539.086914,1492.984619 
M1421.500244,1492.016479 
	C1433.035034,1492.016479 1444.569824,1492.016479 1456.104614,1492.016479 
	C1456.100586,1491.772949 1456.096558,1491.529419 1456.092651,1491.285889 
	C1423.959106,1491.285889 1391.825562,1491.285889 1359.692017,1491.285889 
	C1359.691528,1491.538574 1359.691040,1491.791260 1359.690552,1492.043945 
	C1379.960449,1492.043945 1400.230225,1492.043945 1421.500244,1492.016479 
M761.401550,1487.000244 
	C732.135986,1487.000244 702.870361,1487.000244 673.604797,1487.000244 
	C673.605774,1487.250122 673.606812,1487.499878 673.607788,1487.749756 
	C705.491455,1487.749756 737.375122,1487.749756 769.258728,1487.749756 
	C769.264099,1487.499878 769.269409,1487.250122 769.274719,1487.000244 
	C766.971130,1487.000244 764.667480,1487.000244 761.401550,1487.000244 
M888.500000,1488.000122 
	C873.955933,1488.000122 859.411926,1488.000122 844.867859,1488.000122 
	C844.871948,1488.256714 844.876099,1488.513184 844.880188,1488.769775 
	C875.363037,1488.769775 905.845886,1488.769775 936.328735,1488.769775 
	C936.329590,1488.513184 936.330444,1488.256714 936.331360,1488.000122 
	C920.720886,1488.000122 905.110474,1488.000122 888.500000,1488.000122 
M548.500000,1486.000122 
	C534.293701,1486.000122 520.087402,1486.000122 505.881134,1486.000122 
	C505.885284,1486.255981 505.889465,1486.511963 505.893646,1486.767822 
	C535.703918,1486.767822 565.514160,1486.767822 595.324402,1486.767822 
	C595.325256,1486.511963 595.326050,1486.255981 595.326904,1486.000122 
	C580.051270,1486.000122 564.775635,1486.000122 548.500000,1486.000122 
M1277.432983,1491.063965 
	C1280.369751,1491.063965 1283.306519,1491.063965 1286.243286,1491.063965 
	C1286.227783,1490.801880 1286.212280,1490.539917 1286.196777,1490.277832 
	C1265.669189,1490.277832 1245.141602,1490.277832 1224.614014,1490.277832 
	C1224.613159,1490.522705 1224.612427,1490.767700 1224.611572,1491.012573 
	C1241.891968,1491.012573 1259.172485,1491.012573 1277.432983,1491.063965 
M1692.390869,1492.972778 
	C1682.439087,1492.972778 1672.487305,1492.972778 1662.535522,1492.972778 
	C1662.537964,1493.245850 1662.540283,1493.519043 1662.542725,1493.792114 
	C1674.860107,1493.792114 1687.177490,1493.792114 1699.494995,1493.792114 
	C1699.501709,1493.521851 1699.508423,1493.251587 1699.515259,1492.981323 
	C1697.461182,1492.981323 1695.406982,1492.981323 1692.390869,1492.972778 
M1714.586182,1493.457886 
	C1725.090820,1495.356445 1748.705811,1494.261841 1749.306152,1492.810059 
	C1738.267578,1492.890381 1726.793335,1492.973877 1714.586182,1493.457886 
M1325.657104,1491.122803 
	C1323.593384,1491.122803 1321.529663,1491.122803 1319.465942,1491.122803 
	C1319.470947,1491.305786 1319.475952,1491.488892 1319.481079,1491.671875 
	C1331.586548,1491.671875 1343.691895,1491.671875 1355.797363,1491.671875 
	C1355.796875,1491.442749 1355.796265,1491.213623 1355.795776,1490.984497 
	C1346.068970,1490.984497 1336.342285,1490.984497 1325.657104,1491.122803 
M821.489258,1489.029419 
	C826.150391,1489.029419 830.811523,1489.029419 835.472595,1489.029419 
	C835.463745,1488.757080 835.454895,1488.484741 835.446045,1488.212402 
	C824.128357,1488.212402 812.810730,1488.212402 801.493042,1488.212402 
	C801.489441,1488.484741 801.485779,1488.757080 801.482117,1489.029419 
	C807.818237,1489.029419 814.154358,1489.029419 821.489258,1489.029419 
M1007.555237,1489.535156 
	C996.590027,1489.535156 985.624878,1489.535156 974.659668,1489.535156 
	C974.659790,1489.687866 974.659912,1489.840576 974.660034,1489.993286 
	C985.380188,1489.993286 996.100403,1489.993286 1007.555237,1489.535156 
M1755.688721,1023.944519 
	C1755.885986,1023.777588 1756.083252,1023.610718 1756.280396,1023.443726 
	C1756.142944,1023.350098 1756.005615,1023.174500 1755.868042,1023.174316 
	C1745.439819,1023.161560 1735.011597,1023.162720 1724.583374,1023.162720 
	C1724.582153,1023.442444 1724.580933,1023.722229 1724.579712,1024.001953 
	C1734.665161,1024.001953 1744.750610,1024.001953 1755.688721,1023.944519 
M639.550110,1487.857788 
	C646.859192,1487.857788 654.168213,1487.857788 661.477295,1487.857788 
	C661.471619,1487.688477 661.465881,1487.519043 661.460205,1487.349731 
	C651.221313,1487.349731 640.982361,1487.349731 630.743469,1487.349731 
	C630.743896,1487.568237 630.744385,1487.786621 630.744812,1488.005127 
	C633.357178,1488.005127 635.969482,1488.005127 639.550110,1487.857788 
M1439.019409,1019.014771 
	C1448.380249,1019.014771 1457.741211,1019.014771 1467.102051,1019.014771 
	C1467.095093,1018.784485 1467.088013,1018.554138 1467.081055,1018.323853 
	C1456.963867,1018.323853 1446.846680,1018.323853 1436.729492,1018.323853 
	C1436.726929,1018.457214 1436.724365,1018.590576 1436.721802,1018.723877 
	C1437.197144,1018.820984 1437.672607,1018.918091 1439.019409,1019.014771 
M1396.498047,1018.006104 
	C1401.375244,1018.006104 1406.252441,1018.006104 1411.129639,1018.006104 
	C1411.121216,1017.765076 1411.112915,1017.524048 1411.104492,1017.283020 
	C1400.960449,1017.283020 1390.816528,1017.283020 1380.672607,1017.283020 
	C1380.671631,1017.535400 1380.670654,1017.787781 1380.669800,1018.040161 
	C1385.614136,1018.040161 1390.558594,1018.040161 1396.498047,1018.006104 
M1345.405518,1017.090820 
	C1348.003662,1017.090820 1350.601807,1017.090820 1353.199951,1017.090820 
	C1353.184570,1016.816833 1353.169312,1016.542847 1353.153931,1016.268860 
	C1342.980103,1016.268860 1332.806152,1016.268860 1322.632324,1016.268860 
	C1322.630493,1016.539673 1322.628662,1016.810547 1322.626831,1017.081360 
	C1329.894653,1017.081360 1337.162598,1017.081360 1345.405518,1017.090820 
M480.493347,1487.029541 
	C484.793549,1487.029541 489.093750,1487.029541 493.393951,1487.029541 
	C493.385742,1486.788574 493.377533,1486.547607 493.369293,1486.306641 
	C483.783936,1486.306641 474.198578,1486.306641 464.613190,1486.306641 
	C464.612091,1486.547607 464.610962,1486.788574 464.609833,1487.029541 
	C469.572876,1487.029541 474.535889,1487.029541 480.493347,1487.029541 
M1501.675293,1019.000488 
	C1499.688965,1019.000488 1497.702515,1019.000488 1495.716187,1019.000488 
	C1495.726807,1019.270142 1495.737427,1019.539856 1495.748047,1019.809509 
	C1503.989746,1019.809509 1512.231323,1019.809509 1520.473022,1019.809509 
	C1520.477417,1019.539856 1520.481689,1019.270142 1520.486084,1019.000488 
	C1514.534790,1019.000488 1508.583618,1019.000488 1501.675293,1019.000488 
z"/>
<path fill="#FF0803" opacity="1.000000" stroke="none" 
	d="
M1421.000244,1492.030273 
	C1400.230225,1492.043945 1379.960449,1492.043945 1359.690552,1492.043945 
	C1359.691040,1491.791260 1359.691528,1491.538574 1359.692017,1491.285889 
	C1391.825562,1491.285889 1423.959106,1491.285889 1456.092651,1491.285889 
	C1456.096558,1491.529419 1456.100586,1491.772949 1456.104614,1492.016479 
	C1444.569824,1492.016479 1433.035034,1492.016479 1421.000244,1492.030273 
z"/>
<path fill="#FF0803" opacity="1.000000" stroke="none" 
	d="
M761.882690,1487.000244 
	C764.667480,1487.000244 766.971130,1487.000244 769.274719,1487.000244 
	C769.269409,1487.250122 769.264099,1487.499878 769.258728,1487.749756 
	C737.375122,1487.749756 705.491455,1487.749756 673.607788,1487.749756 
	C673.606812,1487.499878 673.605774,1487.250122 673.604797,1487.000244 
	C702.870361,1487.000244 732.135986,1487.000244 761.882690,1487.000244 
z"/>
<path fill="#FF0803" opacity="1.000000" stroke="none" 
	d="
M889.000000,1488.000122 
	C905.110474,1488.000122 920.720886,1488.000122 936.331360,1488.000122 
	C936.330444,1488.256714 936.329590,1488.513184 936.328735,1488.769775 
	C905.845886,1488.769775 875.363037,1488.769775 844.880188,1488.769775 
	C844.876099,1488.513184 844.871948,1488.256714 844.867859,1488.000122 
	C859.411926,1488.000122 873.955933,1488.000122 889.000000,1488.000122 
z"/>
<path fill="#FF0803" opacity="1.000000" stroke="none" 
	d="
M549.000000,1486.000122 
	C564.775635,1486.000122 580.051270,1486.000122 595.326904,1486.000122 
	C595.326050,1486.255981 595.325256,1486.511963 595.324402,1486.767822 
	C565.514160,1486.767822 535.703918,1486.767822 505.893646,1486.767822 
	C505.889465,1486.511963 505.885284,1486.255981 505.881134,1486.000122 
	C520.087402,1486.000122 534.293701,1486.000122 549.000000,1486.000122 
z"/>
<path fill="#FF0803" opacity="1.000000" stroke="none" 
	d="
M1538.181763,1492.166748 
	C1565.922119,1492.166748 1593.662476,1492.166748 1621.402832,1492.166748 
	C1621.402954,1492.439331 1621.403076,1492.712036 1621.403076,1492.984619 
	C1593.964355,1492.984619 1566.525635,1492.984619 1538.633911,1492.743530 
	C1538.180908,1492.502441 1538.181763,1492.166748 1538.181763,1492.166748 
z"/>
<path fill="#FF0803" opacity="1.000000" stroke="none" 
	d="
M338.181671,1485.166626 
	C365.915497,1485.166626 393.649353,1485.166626 421.383179,1485.166626 
	C421.383240,1485.440918 421.383301,1485.715210 421.383362,1485.989502 
	C393.950317,1485.989502 366.517242,1485.989502 338.631958,1485.747559 
	C338.179749,1485.505493 338.181671,1485.166626 338.181671,1485.166626 
z"/>
<path fill="#FF0803" opacity="1.000000" stroke="none" 
	d="
M1276.942871,1491.038330 
	C1259.172485,1491.012573 1241.891968,1491.012573 1224.611572,1491.012573 
	C1224.612427,1490.767700 1224.613159,1490.522705 1224.614014,1490.277832 
	C1245.141602,1490.277832 1265.669189,1490.277832 1286.196777,1490.277832 
	C1286.212280,1490.539917 1286.227783,1490.801880 1286.243286,1491.063965 
	C1283.306519,1491.063965 1280.369751,1491.063965 1276.942871,1491.038330 
z"/>
<path fill="#FFA594" opacity="1.000000" stroke="none" 
	d="
M1537.703369,1492.064941 
	C1538.181763,1492.166748 1538.180908,1492.502441 1538.181885,1492.670288 
	C1517.711792,1492.838135 1497.240723,1492.838135 1476.769531,1492.838135 
	C1476.769409,1492.546509 1476.769287,1492.254883 1476.769043,1491.963257 
	C1496.921143,1491.963257 1517.073120,1491.963257 1537.703369,1492.064941 
z"/>
<path fill="#FFF0E1" opacity="1.000000" stroke="none" 
	d="
M1692.871826,1492.977051 
	C1695.406982,1492.981323 1697.461182,1492.981323 1699.515259,1492.981323 
	C1699.508423,1493.251587 1699.501709,1493.521851 1699.494995,1493.792114 
	C1687.177490,1493.792114 1674.860107,1493.792114 1662.542725,1493.792114 
	C1662.540283,1493.519043 1662.537964,1493.245850 1662.535522,1492.972778 
	C1672.487305,1492.972778 1682.439087,1492.972778 1692.871826,1492.977051 
z"/>
<path fill="#FF0803" opacity="1.000000" stroke="none" 
	d="
M1714.952637,1493.257690 
	C1726.793335,1492.973877 1738.267578,1492.890381 1749.306152,1492.810059 
	C1748.705811,1494.261841 1725.090820,1495.356445 1714.952637,1493.257690 
z"/>
<path fill="#FFF0E1" opacity="1.000000" stroke="none" 
	d="
M1326.136230,1491.053711 
	C1336.342285,1490.984497 1346.068970,1490.984497 1355.795776,1490.984497 
	C1355.796265,1491.213623 1355.796875,1491.442749 1355.797363,1491.671875 
	C1343.691895,1491.671875 1331.586548,1491.671875 1319.481079,1491.671875 
	C1319.475952,1491.488892 1319.470947,1491.305786 1319.465942,1491.122803 
	C1321.529663,1491.122803 1323.593384,1491.122803 1326.136230,1491.053711 
z"/>
<path fill="#FFF0E1" opacity="1.000000" stroke="none" 
	d="
M820.989868,1489.029419 
	C814.154358,1489.029419 807.818237,1489.029419 801.482117,1489.029419 
	C801.485779,1488.757080 801.489441,1488.484741 801.493042,1488.212402 
	C812.810730,1488.212402 824.128357,1488.212402 835.446045,1488.212402 
	C835.454895,1488.484741 835.463745,1488.757080 835.472595,1489.029419 
	C830.811523,1489.029419 826.150391,1489.029419 820.989868,1489.029419 
z"/>
<path fill="#FFF0E1" opacity="1.000000" stroke="none" 
	d="
M1007.187927,1489.764160 
	C996.100403,1489.993286 985.380188,1489.993286 974.660034,1489.993286 
	C974.659912,1489.840576 974.659790,1489.687866 974.659668,1489.535156 
	C985.624878,1489.535156 996.590027,1489.535156 1007.187927,1489.764160 
z"/>
<path fill="#FF0803" opacity="1.000000" stroke="none" 
	d="
M1755.262451,1023.973267 
	C1744.750610,1024.001953 1734.665161,1024.001953 1724.579712,1024.001953 
	C1724.580933,1023.722229 1724.582153,1023.442444 1724.583374,1023.162720 
	C1735.011597,1023.162720 1745.439819,1023.161560 1755.868042,1023.174316 
	C1756.005615,1023.174500 1756.142944,1023.350098 1756.280396,1023.443726 
	C1756.083252,1023.610718 1755.885986,1023.777588 1755.262451,1023.973267 
z"/>
<path fill="#FFF0E1" opacity="1.000000" stroke="none" 
	d="
M639.065918,1487.931396 
	C635.969482,1488.005127 633.357178,1488.005127 630.744812,1488.005127 
	C630.744385,1487.786621 630.743896,1487.568237 630.743469,1487.349731 
	C640.982361,1487.349731 651.221313,1487.349731 661.460205,1487.349731 
	C661.465881,1487.519043 661.471619,1487.688477 661.477295,1487.857788 
	C654.168213,1487.857788 646.859192,1487.857788 639.065918,1487.931396 
z"/>
<path fill="#FF0803" opacity="1.000000" stroke="none" 
	d="
M1438.583740,1019.015015 
	C1437.672607,1018.918091 1437.197144,1018.820984 1436.721802,1018.723877 
	C1436.724365,1018.590576 1436.726929,1018.457214 1436.729492,1018.323853 
	C1446.846680,1018.323853 1456.963867,1018.323853 1467.081055,1018.323853 
	C1467.088013,1018.554138 1467.095093,1018.784485 1467.102051,1019.014771 
	C1457.741211,1019.014771 1448.380249,1019.014771 1438.583740,1019.015015 
z"/>
<path fill="#FF0803" opacity="1.000000" stroke="none" 
	d="
M1396.000488,1018.023132 
	C1390.558594,1018.040161 1385.614136,1018.040161 1380.669800,1018.040161 
	C1380.670654,1017.787781 1380.671631,1017.535400 1380.672607,1017.283020 
	C1390.816528,1017.283020 1400.960449,1017.283020 1411.104492,1017.283020 
	C1411.112915,1017.524048 1411.121216,1017.765076 1411.129639,1018.006104 
	C1406.252441,1018.006104 1401.375244,1018.006104 1396.000488,1018.023132 
z"/>
<path fill="#FF0803" opacity="1.000000" stroke="none" 
	d="
M1344.917969,1017.086060 
	C1337.162598,1017.081360 1329.894653,1017.081360 1322.626831,1017.081360 
	C1322.628662,1016.810547 1322.630493,1016.539673 1322.632324,1016.268860 
	C1332.806152,1016.268860 1342.980103,1016.268860 1353.153931,1016.268860 
	C1353.169312,1016.542847 1353.184570,1016.816833 1353.199951,1017.090820 
	C1350.601807,1017.090820 1348.003662,1017.090820 1344.917969,1017.086060 
z"/>
<path fill="#FFF0E1" opacity="1.000000" stroke="none" 
	d="
M479.996155,1487.029541 
	C474.535889,1487.029541 469.572876,1487.029541 464.609833,1487.029541 
	C464.610962,1486.788574 464.612091,1486.547607 464.613190,1486.306641 
	C474.198578,1486.306641 483.783936,1486.306641 493.369293,1486.306641 
	C493.377533,1486.547607 493.385742,1486.788574 493.393951,1487.029541 
	C489.093750,1487.029541 484.793549,1487.029541 479.996155,1487.029541 
z"/>
<path fill="#FFA594" opacity="1.000000" stroke="none" 
	d="
M337.695129,1485.094971 
	C338.181671,1485.166626 338.179749,1485.505493 338.179749,1485.674805 
	C331.158173,1485.892090 324.134766,1486.031372 317.116699,1485.895752 
	C315.972443,1485.873657 314.851593,1484.636597 313.326080,1483.725952 
	C321.779419,1486.102539 329.580994,1484.695312 337.695129,1485.094971 
z"/>
<path fill="#FF0803" opacity="1.000000" stroke="none" 
	d="
M1502.153809,1019.000488 
	C1508.583618,1019.000488 1514.534790,1019.000488 1520.486084,1019.000488 
	C1520.481689,1019.270142 1520.477417,1019.539856 1520.473022,1019.809509 
	C1512.231323,1019.809509 1503.989746,1019.809509 1495.748047,1019.809509 
	C1495.737427,1019.539856 1495.726807,1019.270142 1495.716187,1019.000488 
	C1497.702515,1019.000488 1499.688965,1019.000488 1502.153809,1019.000488 
z"/>
</svg>