<svg width="512" height="512" viewBox="0 0 512 512" fill="none" xmlns="http://www.w3.org/2000/svg">
<g clip-path="url(#clip0_1150_257)">
<path d="M426.667 341.333H405.333V309.333C405.333 291.648 390.997 277.333 373.333 277.333C355.669 277.333 341.333 291.648 341.333 309.333V341.333H288V213.333C288 211.52 287.765 209.792 287.467 208.064C330.901 194.581 362.667 154.539 362.667 106.667C362.667 47.7653 314.901 0 256 0C197.099 0 149.333 47.7653 149.333 106.667C149.333 154.539 181.099 194.581 224.533 208.064C224.256 209.792 224 211.52 224 213.333V341.333H85.3333C38.272 341.333 0 379.605 0 426.667C0 473.728 38.272 512 85.3333 512H426.667C473.728 512 512 473.728 512 426.667C512 379.605 473.728 341.333 426.667 341.333ZM256 64C279.531 64 298.667 83.136 298.667 106.667C298.667 130.197 279.531 149.333 256 149.333C232.469 149.333 213.333 130.197 213.333 106.667C213.333 83.136 232.469 64 256 64ZM426.667 448H85.3333C73.5573 448 64 438.421 64 426.667C64 414.912 73.5573 405.333 85.3333 405.333H426.667C438.443 405.333 448 414.912 448 426.667C448 438.421 438.443 448 426.667 448Z" fill="black"/>
</g>
<defs>
<clipPath id="clip0_1150_257">
<rect width="512" height="512" fill="black"/>
</clipPath>
</defs>
</svg>
