<svg width="512" height="512" viewBox="0 0 512 512" fill="none" xmlns="http://www.w3.org/2000/svg">
<g clip-path="url(#clip0_1150_259)">
<path d="M103.744 60.9064L136.811 51.4771L146.24 18.4104C147.759 13.1045 150.964 8.43747 155.372 5.11508C159.779 1.79268 165.148 -0.00439453 170.667 -0.00439453C176.186 -0.00439453 181.555 1.79268 185.962 5.11508C190.369 8.43747 193.574 13.1045 195.093 18.4104L204.523 51.4771L237.589 60.9064C242.895 62.4255 247.562 65.6309 250.885 70.0379C254.207 74.445 256.004 79.814 256.004 85.3331C256.004 90.8522 254.207 96.2212 250.885 100.628C247.562 105.035 242.895 108.241 237.589 109.76L204.523 119.189L195.093 152.256C193.574 157.562 190.369 162.229 185.962 165.551C181.555 168.874 176.186 170.671 170.667 170.671C165.148 170.671 159.779 168.874 155.372 165.551C150.964 162.229 147.759 157.562 146.24 152.256L136.811 119.189L103.744 109.76C98.4381 108.241 93.771 105.035 90.4487 100.628C87.1263 96.2212 85.3292 90.8522 85.3292 85.3331C85.3292 79.814 87.1263 74.445 90.4487 70.0379C93.771 65.6309 98.4381 62.4255 103.744 60.9064ZM493.589 316.906L460.523 307.477L451.093 274.41C449.574 269.105 446.369 264.437 441.962 261.115C437.555 257.793 432.186 255.996 426.667 255.996C421.148 255.996 415.779 257.793 411.372 261.115C406.964 264.437 403.759 269.105 402.24 274.41L392.811 307.477L359.744 316.906C354.438 318.425 349.771 321.631 346.449 326.038C343.126 330.445 341.329 335.814 341.329 341.333C341.329 346.852 343.126 352.221 346.449 356.628C349.771 361.035 354.438 364.241 359.744 365.76L392.811 375.189L402.24 408.256C403.759 413.562 406.964 418.229 411.372 421.551C415.779 424.874 421.148 426.671 426.667 426.671C432.186 426.671 437.555 424.874 441.962 421.551C446.369 418.229 449.574 413.562 451.093 408.256L460.523 375.189L493.589 365.76C498.895 364.241 503.562 361.035 506.885 356.628C510.207 352.221 512.004 346.852 512.004 341.333C512.004 335.814 510.207 330.445 506.885 326.038C503.562 321.631 498.895 318.425 493.589 316.906ZM378.773 95.9998L407.701 104.256L416 133.205C417.351 137.817 420.159 141.867 424.005 144.748C427.852 147.63 432.528 149.187 437.333 149.187C442.139 149.187 446.815 147.63 450.661 144.748C454.507 141.867 457.316 137.817 458.667 133.205L466.923 104.298L495.893 95.9998C500.505 94.6492 504.555 91.8404 507.437 87.9943C510.318 84.1482 511.875 79.472 511.875 74.6664C511.875 69.8608 510.318 65.1846 507.437 61.3386C504.555 57.4925 500.505 54.6837 495.893 53.3331L466.965 45.0771L458.667 16.1064C457.316 11.4945 454.507 7.4445 450.661 4.56324C446.815 1.68199 442.139 0.124674 437.333 0.124674C432.528 0.124674 427.852 1.68199 424.005 4.56324C420.159 7.4445 417.351 11.4945 416 16.1064L407.744 45.0344L378.773 53.3331C374.161 54.6837 370.111 57.4925 367.23 61.3386C364.349 65.1846 362.792 69.8608 362.792 74.6664C362.792 79.472 364.349 84.1482 367.23 87.9943C370.111 91.8404 374.161 94.6492 378.773 95.9998ZM365.973 269.824L142.635 487.765C126.904 503.336 105.65 512.048 83.5161 511.996C61.3823 511.944 40.169 503.133 24.512 487.488C8.83498 471.774 0.0307617 450.484 0.0307617 428.288C0.0307617 406.091 8.83498 384.801 24.512 369.088L249.024 150.037C260.839 138.498 275.803 130.712 292.033 127.66C308.264 124.608 325.034 126.426 340.233 132.885C355.433 139.344 368.381 150.156 377.448 163.959C386.516 177.762 391.297 193.939 391.189 210.453C391.157 221.541 388.906 232.51 384.568 242.714C380.23 252.918 373.893 262.15 365.931 269.866L365.973 269.824ZM234.133 309.056L206.208 281.216L69.4827 414.613C65.8926 418.329 63.9109 423.31 63.9668 428.477C64.0227 433.644 66.1117 438.581 69.7813 442.218C73.5276 445.814 78.5193 447.822 83.712 447.822C88.9048 447.822 93.8964 445.814 97.6427 442.218L234.133 309.056ZM327.232 210.026C327.255 206.139 326.128 202.332 323.993 199.084C321.857 195.836 318.81 193.291 315.232 191.771C311.655 190.25 307.708 189.821 303.887 190.537C300.067 191.254 296.543 193.084 293.76 195.797L252.053 236.48L279.936 264.362L321.259 224C323.12 222.186 324.603 220.021 325.621 217.629C326.639 215.238 327.172 212.668 327.189 210.069L327.232 210.026Z" fill="black"/>
</g>
<defs>
<clipPath id="clip0_1150_259">
<rect width="512" height="512" fill="black"/>
</clipPath>
</defs>
</svg>
