<svg width="512" height="512" viewBox="0 0 512 512" fill="none" xmlns="http://www.w3.org/2000/svg">
<g clip-path="url(#clip0_1150_266)">
<path d="M34.3679 256C50.5599 256 63.7013 268.16 66.0479 284.16C79.7226 376.725 159.68 448 255.979 448C372.8 448 465.621 343.104 445.141 222.528C435.477 165.675 399.317 115.371 348.651 87.8508C273.856 47.2535 189.077 61.1202 131.477 110.144L155.584 134.251C169.024 147.691 159.509 170.667 140.501 170.667H42.6666C30.8906 170.667 21.3333 161.109 21.3333 149.333V51.4988C21.3333 32.4908 44.3093 22.9762 57.7493 36.4162L86.1653 64.8322C162.133 -2.45317 275.648 -22.7838 376.256 30.0375C447.083 67.2215 497.088 137.28 509.013 216.384C532.949 375.04 410.176 512 256 512C127.552 512 20.8853 416.917 2.73061 293.419C-0.149392 273.792 14.5279 256 34.3679 256Z" fill="black"/>
</g>
<defs>
<clipPath id="clip0_1150_266">
<rect width="512" height="512" fill="black"/>
</clipPath>
</defs>
</svg>
